<svg width="32" height="32" viewBox="0 0 32 32" fill="none" xmlns="http://www.w3.org/2000/svg">
<g clip-path="url(#clip0_1077_4329)">
<path d="M16.0002 5.4962L14.5662 4.0222C11.2002 0.562198 5.02824 1.7562 2.80025 6.1062C1.83625 7.9902 1.56025 10.6462 3.01625 14.0002H0.860245C-3.39575 2.6062 9.19024 -3.6598 15.6482 2.2862C15.7682 2.39687 15.8856 2.51087 16.0002 2.6282C16.1129 2.51013 16.2303 2.3967 16.3522 2.2882C22.8122 -3.6598 35.3962 2.6062 31.1402 14.0002H28.9842C30.4402 10.6462 30.1642 7.9902 29.2002 6.1062C26.9722 1.7562 20.8002 0.560198 17.4342 4.0202L16.0002 5.4962ZM4.42424 20.0002H7.05424C9.18624 22.3662 12.1002 24.9162 16.0002 27.5902C19.8982 24.9162 22.8142 22.3662 24.9462 20.0002H27.5762C25.0462 23.1322 21.2962 26.5002 16.0002 30.0002C10.7042 26.5002 6.95424 23.1322 4.42424 20.0002Z" fill="#145DB8"/>
<path d="M20.928 6.62799C20.8504 6.43437 20.7142 6.26985 20.5385 6.15747C20.3628 6.04509 20.1563 5.99048 19.948 6.00128C19.7397 6.01208 19.5399 6.08776 19.3768 6.21771C19.2136 6.34766 19.0951 6.52538 19.038 6.72599L15.842 17.912L12.928 10.628C12.8601 10.459 12.7474 10.3118 12.602 10.2022C12.4566 10.0926 12.284 10.0247 12.1029 10.006C11.9218 9.98727 11.739 10.0184 11.5742 10.0959C11.4095 10.1734 11.269 10.2945 11.168 10.446L7.464 16H1C0.734784 16 0.48043 16.1054 0.292893 16.2929C0.105357 16.4804 0 16.7348 0 17C0 17.2652 0.105357 17.5196 0.292893 17.7071C0.48043 17.8946 0.734784 18 1 18H8C8.16468 17.9999 8.3268 17.9592 8.47194 17.8813C8.61708 17.8035 8.74077 17.6911 8.832 17.554L11.778 13.136L15.072 21.372C15.1496 21.5656 15.2858 21.7301 15.4615 21.8425C15.6372 21.9549 15.8437 22.0095 16.052 21.9987C16.2603 21.9879 16.4601 21.9122 16.6232 21.7823C16.7864 21.6523 16.9049 21.4746 16.962 21.274L20.158 10.088L23.072 17.372C23.1463 17.5574 23.2744 17.7163 23.4398 17.8282C23.6052 17.9401 23.8003 17.9999 24 18H31C31.2652 18 31.5196 17.8946 31.7071 17.7071C31.8946 17.5196 32 17.2652 32 17C32 16.7348 31.8946 16.4804 31.7071 16.2929C31.5196 16.1054 31.2652 16 31 16H24.676L20.928 6.62799Z" fill="#145DB8"/>
</g>
<defs>
<clipPath id="clip0_1077_4329">
<rect width="32" height="32" fill="white"/>
</clipPath>
</defs>
</svg>
